<?xml version="1.0" encoding="UTF-8" standalone="no"?>
<!-- Created with Inkscape (http://www.inkscape.org/) -->

<svg
   width="256"
   height="256"
   viewBox="0 0 256 256"
   version="1.1"
   id="svg1"
   inkscape:version="1.3.2 (091e20e, 2023-11-25)"
   sodipodi:docname="analysis.svg"
   inkscape:export-filename="docs/images/analysis.png"
   inkscape:export-xdpi="96"
   inkscape:export-ydpi="96"
   xmlns:inkscape="http://www.inkscape.org/namespaces/inkscape"
   xmlns:sodipodi="http://sodipodi.sourceforge.net/DTD/sodipodi-0.dtd"
   xmlns="http://www.w3.org/2000/svg"
   xmlns:svg="http://www.w3.org/2000/svg">
  <sodipodi:namedview
     id="namedview1"
     pagecolor="#1c1c1c"
     bordercolor="#fd00e2"
     borderopacity="0.24705882"
     inkscape:showpageshadow="false"
     inkscape:pageopacity="0.0"
     inkscape:pagecheckerboard="0"
     inkscape:deskcolor="#3f3f3f"
     inkscape:document-units="px"
     showborder="true"
     borderlayer="false"
     showgrid="true"
     showguides="true"
     inkscape:lockguides="true"
     inkscape:zoom="3.6484375"
     inkscape:cx="127.86296"
     inkscape:cy="128"
     inkscape:window-width="1920"
     inkscape:window-height="1147"
     inkscape:window-x="1920"
     inkscape:window-y="25"
     inkscape:window-maximized="0"
     inkscape:current-layer="layer1"
     inkscape:export-bgcolor="#00000000">
    <sodipodi:guide
       position="0,256"
       orientation="0,256"
       id="guide1"
       inkscape:locked="true" />
    <sodipodi:guide
       position="256,256"
       orientation="256,0"
       id="guide2"
       inkscape:locked="true" />
    <sodipodi:guide
       position="256,0"
       orientation="0,-256"
       id="guide3"
       inkscape:locked="true" />
    <sodipodi:guide
       position="0,0"
       orientation="-256,0"
       id="guide4"
       inkscape:locked="true" />
    <inkscape:grid
       id="grid4"
       units="px"
       originx="0"
       originy="0"
       spacingx="1"
       spacingy="1"
       empcolor="#0099e5"
       empopacity="0.30196078"
       color="#0099e5"
       opacity="0.14901961"
       empspacing="8"
       dotted="false"
       gridanglex="30"
       gridanglez="30"
       visible="true" />
    <sodipodi:guide
       position="10,246"
       orientation="0,-1"
       id="guide5"
       inkscape:locked="true" />
    <sodipodi:guide
       position="10,246"
       orientation="1,0"
       id="guide6"
       inkscape:locked="true" />
    <sodipodi:guide
       position="246,10"
       orientation="0,-1"
       id="guide7"
       inkscape:locked="true" />
    <sodipodi:guide
       position="246,10"
       orientation="1,0"
       id="guide8"
       inkscape:locked="true" />
  </sodipodi:namedview>
  <defs
     id="defs1" />
  <g
     inkscape:label="Layer 1"
     inkscape:groupmode="layer"
     id="layer1">
    <g
       id="_x33_4_x2C__atom_x2C__nuclear_x2C__molecule_x2C__chemistry_x2C__science"
       transform="matrix(0.51841182,0,0,0.51841182,-4.7162772,-4.7131667)"
       style="stroke-width:1.92897"
       inkscape:label="analysis">
      <g
         id="g2"
         style="stroke-width:1.92897">
        <path
           d="m 391.461,201.646 c 3.559,-5.957 6.837,-11.774 9.764,-17.414 18.896,-36.376 24.321,-65.14 11.88,-77.582 -12.444,-12.443 -41.17,-6.979 -77.55,11.914 -5.674,2.926 -11.49,6.168 -17.445,9.729 4.439,18.998 7.967,40.184 10.398,62.99 10.82,1.128 21.289,2.537 31.336,4.158 11.066,1.799 21.643,3.879 31.617,6.205 M 176.445,409.015 c 5.64,-2.926 11.455,-6.203 17.375,-9.764 -4.404,-18.964 -7.931,-40.185 -10.363,-62.956 -6.836,-0.738 -13.536,-1.549 -20.057,-2.467 -15.228,-2.149 -29.606,-4.794 -42.896,-7.895 -3.559,5.956 -6.801,11.773 -9.729,17.412 -18.895,36.377 -24.356,65.105 -11.915,77.548 12.445,12.444 41.205,7.014 77.585,-11.878 z m 13.533,-186.748 c 3.948,-4.161 7.967,-8.284 12.09,-12.407 4.127,-4.124 8.25,-8.143 12.375,-12.091 -7.721,0.458 -15.298,1.021 -22.735,1.727 -0.706,7.438 -1.27,15.016 -1.73,22.771 z m 119.918,95.418 c -4.127,4.124 -8.25,8.177 -12.374,12.091 7.721,-0.424 15.333,-1.021 22.771,-1.727 0.67,-7.402 1.27,-15.016 1.729,-22.736 -3.948,4.125 -8.001,8.248 -12.126,12.372 z M 248.881,167.067 c -16.144,-12.973 -31.937,-24.288 -46.954,-33.806 -3.913,17.344 -7.05,36.554 -9.304,57.105 10.399,-0.953 21.113,-1.693 32.042,-2.151 8.107,-7.401 16.179,-14.486 24.216,-21.148 z m 98.027,96.722 c -4.759,-5.744 -9.731,-11.527 -14.877,-17.307 0.141,5.71 0.211,11.492 0.211,17.307 0,5.817 -0.07,11.598 -0.211,17.308 5.146,-5.781 10.118,-11.563 14.877,-17.308 z m 39.584,54.036 c -9.518,-15.016 -20.867,-30.807 -33.804,-46.915 -6.665,8.002 -13.747,16.108 -21.151,24.181 -0.457,10.927 -1.197,21.643 -2.148,32.042 20.549,-2.258 39.724,-5.395 57.103,-9.308 z m -68.383,81.426 c 5.955,3.561 11.771,6.838 17.445,9.764 36.38,18.893 65.105,24.322 77.55,11.879 12.441,-12.442 7.016,-41.171 -11.88,-77.548 -2.927,-5.639 -6.205,-11.456 -9.764,-17.412 -18.965,4.441 -40.184,7.965 -62.953,10.361 -1.06,9.766 -2.291,19.246 -3.702,28.377 -1.902,12.16 -4.159,23.723 -6.696,34.579 z m -54.99,-38.738 c 16.108,12.937 31.901,24.286 46.918,33.769 2.219,-9.766 4.194,-20.127 5.886,-30.983 1.306,-8.39 2.468,-17.132 3.419,-26.085 -10.399,0.951 -21.114,1.656 -32.043,2.15 -8.071,7.401 -16.179,14.45 -24.18,21.149 z M 238.693,339.82 c 5.78,5.147 11.561,10.117 17.305,14.875 5.749,-4.758 11.493,-9.728 17.309,-14.875 -5.71,0.143 -11.49,0.213 -17.309,0.213 -5.85,0 -11.595,-0.07 -17.305,-0.213 z m -49.382,-48.43 c 6.131,6.661 12.547,13.289 19.138,19.915 6.629,6.627 13.29,13.008 19.916,19.176 9.058,0.353 18.26,0.528 27.634,0.528 9.342,0 18.579,-0.176 27.603,-0.528 6.661,-6.168 13.287,-12.549 19.916,-19.176 6.626,-6.626 13.007,-13.254 19.173,-19.915 0.354,-9.06 0.529,-18.26 0.529,-27.601 0,-9.375 -0.175,-18.576 -0.529,-27.635 -6.166,-6.662 -12.547,-13.289 -19.173,-19.915 -6.629,-6.593 -13.255,-13.007 -19.916,-19.142 -9.023,-0.352 -18.261,-0.527 -27.603,-0.527 -9.374,0 -18.576,0.176 -27.634,0.527 -6.661,6.135 -13.287,12.549 -19.916,19.142 -6.591,6.626 -13.006,13.288 -19.138,19.915 -0.354,9.059 -0.53,18.26 -0.53,27.635 0,9.341 0.175,18.541 0.53,27.601 z m -24.219,-27.601 c 4.759,5.745 9.697,11.527 14.842,17.308 -0.105,-5.71 -0.176,-11.49 -0.176,-17.308 0,-5.814 0.035,-11.597 0.176,-17.307 -5.145,5.78 -10.083,11.563 -14.842,17.307 z m -39.584,-54.07 c 9.483,15.051 20.833,30.807 33.769,46.949 6.7,-8.036 13.747,-16.107 21.152,-24.18 0.456,-10.962 1.197,-21.678 2.148,-32.077 -20.549,2.257 -39.725,5.394 -57.069,9.308 z m -14.733,-25.487 c 2.927,5.64 6.17,11.422 9.729,17.377 18.965,-4.404 40.184,-7.93 62.954,-10.361 2.432,-22.771 5.959,-43.957 10.398,-62.955 -5.956,-3.561 -11.771,-6.803 -17.411,-9.729 -36.379,-18.894 -65.14,-24.357 -77.584,-11.914 -12.442,12.443 -6.981,41.206 11.914,77.582 z m 138.106,176.247 c -8.037,-6.664 -16.108,-13.714 -24.215,-21.115 -10.929,-0.494 -21.643,-1.234 -32.042,-2.15 2.253,20.516 5.391,39.727 9.304,57.068 15.051,-9.518 30.844,-20.833 46.953,-33.803 z m 82.691,-128.026 c 7.404,8.107 14.451,16.179 21.116,24.215 12.972,-16.107 24.321,-31.934 33.804,-46.949 -8.883,-2.01 -18.26,-3.809 -28.059,-5.395 -9.307,-1.516 -19,-2.82 -29.01,-3.913 0.952,10.4 1.657,21.115 2.149,32.042 z m -34.05,-34.684 c 4.124,3.948 8.247,7.967 12.374,12.091 4.125,4.123 8.178,8.246 12.091,12.407 -0.425,-7.755 -1.024,-15.333 -1.729,-22.771 -7.403,-0.706 -15.015,-1.269 -22.736,-1.727 z m -117.094,97.322 c -7.405,-8.072 -14.487,-16.144 -21.152,-24.181 -12.936,16.108 -24.286,31.899 -33.769,46.915 12.161,2.749 25.275,5.146 39.127,7.085 5.851,0.812 11.845,1.552 17.941,2.223 -0.95,-10.4 -1.691,-21.115 -2.147,-32.042 z m 21.64,22.594 c -4.124,-4.124 -8.142,-8.247 -12.09,-12.372 0.46,7.721 1.025,15.334 1.73,22.736 7.437,0.705 15.014,1.303 22.77,1.762 -4.16,-3.95 -8.283,-8.002 -12.41,-12.126 z m 85.231,-129.469 c 10.929,0.493 21.644,1.198 32.043,2.151 -2.223,-20.552 -5.391,-39.762 -9.305,-57.105 -15.017,9.518 -30.81,20.868 -46.918,33.806 8.001,6.661 16.109,13.746 24.18,21.148 z M 263.824,29.244 c -2.008,-2.01 -4.794,-3.242 -7.826,-3.242 -3.063,0 -5.815,1.232 -7.822,3.242 -2.011,2.01 -3.243,4.759 -3.243,7.824 0,1.411 0.281,2.785 0.776,4.054 v 0 l 0.14,0.353 0.035,0.035 0.176,0.423 0.035,0.035 v 0.037 l 0.035,0.069 0.035,0.035 0.035,0.105 v 0 l 0.035,0.105 h 0.035 l 0.035,0.07 0.035,0.037 0.039,0.141 0.035,0.035 0.105,0.175 v 0 l 0.07,0.107 v 0.035 l 0.035,0.034 0.035,0.07 0.035,0.035 0.035,0.07 h 0.035 l 0.035,0.107 0.07,0.07 0.035,0.035 0.035,0.07 0.035,0.035 0.035,0.035 0.035,0.07 v 0.035 l 0.07,0.071 v 0 l 0.074,0.105 0.07,0.069 0.035,0.035 0.035,0.07 0.035,0.035 0.035,0.037 0.035,0.07 h 0.035 l 0.07,0.105 v 0 l 0.07,0.07 0.635,0.705 h 0.035 l 0.07,0.07 v 0.035 l 0.07,0.035 0.175,0.178 0.035,0.035 0.035,0.034 0.07,0.07 0.074,0.07 h 0.035 l 0.07,0.07 0.035,0.035 0.035,0.036 0.07,0.035 0.035,0.035 0.07,0.035 v 0 l 0.07,0.07 0.035,0.035 0.07,0.035 0.035,0.035 0.035,0.035 0.07,0.035 0.035,0.037 0.074,0.035 v 0.035 l 0.105,0.035 v 0.035 l 0.07,0.035 0.035,0.034 0.035,0.035 0.07,0.035 h 0.035 l 0.105,0.07 0.07,0.071 h 0.035 l 0.07,0.035 0.035,0.035 0.035,0.035 0.07,0.035 0.109,0.07 v 0 l 0.105,0.035 0.035,0.035 0.07,0.035 h 0.035 l 0.035,0.035 0.07,0.037 0.035,0.035 0.105,0.035 v 0 l 0.07,0.035 0.035,0.035 0.07,0.035 h 0.074 l 0.035,0.035 0.176,0.07 0.035,0.034 0.105,0.035 0.07,0.037 0.07,0.035 v 0 l 0.105,0.034 v 0 l 0.105,0.035 h 0.035 l 0.074,0.035 0.035,0.035 0.07,0.035 h 0.07 l 0.035,0.035 0.07,0.035 0.105,0.035 h 0.035 l 0.07,0.035 h 0.07 0.035 l 0.07,0.035 h 0.035 l 0.109,0.037 v 0 l 0.105,0.035 h 0.035 l 0.07,0.035 h 0.07 l 0.035,0.035 h 0.07 l 0.035,0.035 h 0.105 v 0 l 0.105,0.035 h 0.035 l 0.07,0.035 h 0.073 0.035 l 0.07,0.035 h 0.035 l 0.105,0.035 v 0 h 0.105 0.035 l 0.07,0.035 h 0.07 0.035 l 0.105,0.035 v 0 h 0.109 0.035 l 0.07,0.036 h 0.07 0.07 0.07 0.035 l 0.105,0.035 v 0 h 0.105 0.035 0.07 0.07 l 0.035,0.035 h 0.074 0.035 0.14 v 0 h 0.105 0.035 0.07 0.035 0.07 0.105 v 0 h 0.14 0.109 0.035 0.07 0.07 0.035 0.105 v 0 h 0.141 v 0 h 0.105 0.035 0.07 l 0.074,-0.035 h 0.035 0.105 v 0 h 0.105 0.035 l 0.105,-0.035 h 0.035 0.07 0.07 0.035 l 0.069,-0.036 h 0.035 0.109 v 0 l 0.105,-0.035 h 0.035 0.069 l 0.07,-0.035 h 0.035 0.105 v 0 l 0.105,-0.035 h 0.035 l 0.176,-0.035 0.073,-0.035 h 0.035 l 0.105,-0.035 v 0 h 0.105 l 0.034,-0.035 h 0.07 l 0.07,-0.035 h 0.035 l 0.07,-0.035 h 0.035 l 0.214,-0.072 h 0.035 l 0.07,-0.035 h 0.07 l 0.105,-0.035 h 0.035 l 0.104,-0.035 v -0.035 h 0.105 v -0.035 h 0.07 l 0.319,-0.141 v 0 l 0.105,-0.034 h 0.035 l 0.07,-0.035 0.175,-0.072 v -0.034 c 1.235,-0.529 2.327,-1.305 3.243,-2.256 l 0.425,-0.423 0.035,-0.036 c 1.727,-1.973 2.783,-4.547 2.783,-7.332 0.031,-3.048 -1.201,-5.832 -3.177,-7.807 z m 8.496,19.492 c -0.635,0.918 -1.375,1.729 -2.151,2.539 -1.445,1.443 -3.172,2.678 -5.039,3.666 v 0 l -0.671,0.314 v 0 l -0.351,0.178 -0.073,0.035 -0.141,0.035 -0.105,0.035 -0.07,0.035 -1.267,0.494 h -0.039 l -0.14,0.07 -0.07,0.035 h -0.105 l -0.141,0.07 h -0.07 l -0.175,0.07 v 0 l -0.18,0.035 -0.526,0.143 -0.035,0.035 -0.214,0.035 -0.176,0.035 -0.069,0.035 h -0.141 l -0.105,0.035 -0.07,0.035 -0.179,0.035 h -0.035 l -0.176,0.034 h -0.035 l -0.175,0.035 h -0.07 l -0.105,0.035 -0.105,0.037 h -0.108 l -0.211,0.035 -0.176,0.034 h -0.035 -0.175 l -0.07,0.035 h -0.105 -0.144 l -0.07,0.035 h -0.176 -0.035 l -0.175,0.035 h -0.035 -0.176 l -0.109,0.035 h -0.104 -0.141 -0.07 l -0.176,0.035 v 0 h -0.213 -0.035 -0.175 -0.105 -0.105 -0.14 -0.07 -0.179 -0.21 -0.07 -0.14 -0.105 -0.105 -0.141 -0.074 -0.175 -0.035 l -0.175,-0.035 h -0.07 -0.141 -0.105 l -0.109,-0.035 h -0.141 -0.035 l -0.211,-0.035 v 0 h -0.21 l -0.07,-0.035 h -0.108 -0.141 l -0.07,-0.035 h -0.175 -0.035 l -0.175,-0.034 h -0.035 l -0.179,-0.035 h -0.07 l -0.105,-0.037 -0.141,-0.035 h -0.07 l -0.176,-0.035 h -0.035 l -0.179,-0.034 h -0.035 l -0.175,-0.035 -0.07,-0.035 -0.105,-0.035 h -0.14 l -0.035,-0.035 -0.176,-0.035 h -0.035 l -0.179,-0.035 -0.035,-0.035 -0.175,-0.037 h -0.07 l -0.105,-0.035 -0.14,-0.035 -0.035,-0.035 -0.214,-0.035 v 0 l -0.176,-0.07 h -0.035 l -0.14,-0.07 h -0.105 l -0.105,-0.035 -0.144,-0.07 h -0.035 l -0.175,-0.071 -0.176,-0.07 h -0.07 l -0.141,-0.07 -0.07,-0.034 -0.105,-0.035 -0.144,-0.035 -0.035,-0.035 -0.175,-0.072 v 0 l -0.176,-0.07 -0.07,-0.035 -0.105,-0.035 -0.109,-0.035 -0.07,-0.035 -0.14,-0.07 -0.035,-0.035 -0.175,-0.072 h -0.035 l -0.141,-0.069 -0.07,-0.035 -0.105,-0.07 -0.109,-0.035 -0.07,-0.035 -0.14,-0.069 h -0.035 l -0.175,-0.107 v 0 l -0.176,-0.105 -0.035,-0.035 -0.144,-0.035 -0.07,-0.07 -0.07,-0.035 -0.14,-0.07 h -0.035 l -0.176,-0.107 v -0.034 l -0.14,-0.07 -0.07,-0.035 -0.109,-0.07 -0.105,-0.07 -0.07,-0.035 -0.14,-0.071 v -0.035 l -0.176,-0.105 h -0.035 l -0.105,-0.105 -0.07,-0.035 -0.109,-0.072 -0.105,-0.07 -0.035,-0.035 -0.176,-0.104 v 0 l -0.14,-0.105 -0.425,-0.317 v 0 l -0.07,-0.035 -0.105,-0.105 -0.07,-0.037 -0.07,-0.07 -0.07,-0.035 v -0.035 l -0.07,-0.035 -0.176,-0.14 -0.074,-0.072 -0.035,-0.035 -0.035,-0.034 -0.316,-0.246 -0.035,-0.035 -0.035,-0.035 -0.07,-0.072 -0.07,-0.07 v 0 l -0.07,-0.07 -0.109,-0.07 v 0 l -0.07,-0.07 -0.07,-0.071 -0.035,-0.035 -0.035,-0.035 -0.07,-0.07 -0.07,-0.069 v 0 l -0.07,-0.07 -0.07,-0.07 h -0.035 l -0.035,-0.072 -0.07,-0.07 -0.035,-0.035 -0.035,-0.035 -0.07,-0.07 -0.074,-0.07 v 0 l -0.07,-0.07 -0.07,-0.071 -0.035,-0.035 -0.035,-0.035 -0.07,-0.105 -0.035,-0.034 -0.035,-0.035 -0.07,-0.07 -0.07,-0.072 v 0 l -0.07,-0.07 -0.07,-0.07 -0.035,-0.07 v -0.035 l -0.07,-0.07 -0.074,-0.072 -0.07,-0.069 -0.07,-0.07 v -0.035 l -0.07,-0.035 -0.035,-0.104 -0.07,-0.072 v 0 l -0.07,-0.07 -0.07,-0.07 v -0.035 l -0.07,-0.07 -0.035,-0.07 -0.035,-0.035 -0.035,-0.037 -0.07,-0.105 -0.035,-0.069 h -0.039 l -0.035,-0.07 -0.07,-0.105 v 0 l -0.07,-0.071 -0.035,-0.07 c -13.817,12.09 -26.048,38.209 -35.071,73.459 l -0.495,1.834 c 16.568,10.291 34.049,22.77 51.85,37.186 17.838,-14.381 35.319,-26.895 51.888,-37.186 l -0.495,-1.834 C 298.333,86.945 286.138,60.826 272.32,48.736 Z m 187.243,186.219 c 1.727,-1.762 2.818,-4.193 2.818,-6.873 0,-2.678 -1.092,-5.109 -2.818,-6.838 -1.766,-1.762 -4.197,-2.855 -6.875,-2.855 -2.678,0 -5.11,1.094 -6.837,2.855 -1.48,1.41 -2.471,3.35 -2.786,5.464 v 0 0.14 0 0.07 0.035 l -0.035,0.037 v 0.211 0 0.07 0.07 0 l -0.035,0.072 v 0.034 0.07 0.07 0 0.07 0.035 0.034 0.072 0.035 0.035 0.07 0 0.07 0.07 c 0,2.68 1.091,5.111 2.856,6.873 1.727,1.729 4.159,2.82 6.837,2.82 h 0.07 0.069 0.035 0.07 v 0 h 0.07 0.074 v 0 h 0.104 v 0 h 0.07 0.07 v 0 l 0.07,-0.035 h 0.035 0.035 0.105 v 0 h 0.07 0.035 0.034 0.07 0.035 l 0.039,-0.035 h 0.07 0.035 0.07 0.035 l 0.034,-0.035 h 0.07 0.07 l 0.035,-0.035 h 0.035 0.07 0.035 0.07 l 0.035,-0.035 h 0.035 0.069 0.039 l 0.035,-0.035 h 0.07 v 0 l 0.07,-0.035 h 0.035 0.035 l 0.069,-0.035 h 0.035 0.035 l 0.07,-0.035 h 0.035 0.07 v 0 l 0.07,-0.035 h 0.035 0.035 l 0.07,-0.037 v 0 h 0.038 l 0.035,-0.035 h 0.07 v 0 l 0.07,-0.034 h 0.035 0.035 l 0.07,-0.035 h 0.035 l 0.034,-0.035 h 0.07 v 0 l 0.07,-0.035 h 0.035 l 0.035,-0.035 0.07,-0.035 h 0.07 l 0.035,-0.035 h 0.038 l 0.07,-0.035 v 0 l 0.07,-0.034 h 0.035 l 0.035,-0.037 h 0.07 v -0.035 h 0.07 l 0.07,-0.035 0.035,-0.035 h 0.069 v -0.035 l 0.07,-0.035 h 0.035 l 0.035,-0.035 h 0.07 v -0.035 h 0.073 l 0.035,-0.035 h 0.035 l 0.035,-0.035 v 0 l 0.07,-0.035 0.035,-0.035 h 0.035 l 0.07,-0.037 v 0 l 0.07,-0.035 0.035,-0.035 v 0 l 0.035,-0.035 0.07,-0.034 v 0 l 0.069,-0.035 0.035,-0.035 v 0 l 0.07,-0.035 h 0.035 l 0.039,-0.035 0.035,-0.035 h 0.035 l 0.069,-0.071 v 0 l 0.07,-0.035 0.035,-0.035 v 0 l 0.07,-0.035 0.035,-0.035 h 0.035 l 0.07,-0.035 v -0.035 l 0.07,-0.035 v 0 l 0.035,-0.035 0.07,-0.035 v -0.035 l 0.069,-0.035 h 0.035 l 0.035,-0.037 0.109,-0.105 h 0.035 l 0.035,-0.035 0.034,-0.035 v -0.035 l 0.07,-0.034 0.035,-0.035 0.035,-0.035 0.035,-0.035 v 0 l 0.07,-0.037 0.035,-0.034 0.035,-0.035 0.035,-0.035 v 0 l 0.176,-0.176 v 0 z m 5.746,6.981 c -0.53,0.458 -1.095,0.916 -1.691,1.339 l -0.035,0.035 -0.07,0.035 v 0 l -0.074,0.035 -0.035,0.071 -0.07,0.035 v 0 l -0.069,0.035 -0.035,0.035 -0.07,0.035 v 0 l -0.035,0.035 -0.07,0.035 -0.07,0.035 -0.035,0.035 v 0 l -0.07,0.035 -0.07,0.035 -0.034,0.035 v 0.037 l -0.07,0.035 -0.074,0.035 -0.035,0.035 -0.07,0.035 -0.07,0.035 -0.034,0.035 h -0.035 l -0.035,0.034 -0.07,0.035 -0.035,0.035 -0.035,0.035 h -0.035 l -0.07,0.037 -0.07,0.034 -0.035,0.035 v 0 l -0.07,0.035 -0.073,0.035 -0.035,0.035 v 0 l -0.07,0.035 -0.07,0.035 -0.07,0.035 -0.035,0.035 -0.14,0.072 h -0.035 l -0.105,0.035 -0.07,0.07 h -0.035 l -0.144,0.07 -0.035,0.035 -0.07,0.035 -0.141,0.07 v 0 l -0.245,0.106 -0.141,0.07 h -0.035 l -0.108,0.069 -0.105,0.035 h -0.035 l -0.105,0.07 h -0.07 l -0.07,0.035 -0.14,0.07 v 0 l -0.141,0.072 -0.249,0.105 h -0.035 l -0.105,0.035 -0.105,0.035 h -0.035 l -0.141,0.07 h -0.035 l -0.104,0.035 -0.105,0.035 h -0.039 l -0.14,0.071 h -0.035 l -0.105,0.035 -0.105,0.035 v 0 l -0.141,0.035 -0.105,0.035 -0.035,0.035 -0.144,0.034 h -0.035 l -0.105,0.035 -0.104,0.035 h -0.035 l -0.141,0.035 -0.035,0.035 h -0.105 l -0.141,0.037 v 0 l -0.214,0.07 h -0.07 l -0.14,0.035 h -0.035 l -0.141,0.035 h -0.07 l -0.07,0.035 -0.144,0.035 h -0.035 -0.105 l -0.105,0.035 h -0.035 l -0.14,0.035 h -0.07 -0.07 l -0.141,0.035 v 0 l -0.144,0.035 h -0.105 -0.07 l -0.141,0.037 h -0.035 -0.104 l -0.105,0.034 h -0.035 -0.18 -0.034 l -0.105,0.035 h -0.141 v 0 l -0.141,0.035 h -0.07 -0.069 -0.176 v 0 h -0.145 l -0.104,0.035 h -0.035 -0.141 -0.07 -0.105 -0.105 -0.034 -0.145 -0.07 -0.105 -0.14 c -5.181,0 -9.869,-2.079 -13.252,-5.464 -3.352,-3.384 -5.465,-8.072 -5.465,-13.254 v -0.07 -0.035 -0.07 -0.07 0 -0.035 -0.072 -0.069 -0.035 -0.035 -0.035 -0.035 -0.07 -0.069 0 -0.072 -0.035 -0.07 l 0.035,-0.07 v 0 -0.035 -0.07 -0.035 -0.212 -0.035 -0.07 -0.035 h 0.035 v -0.07 -0.071 -0.035 -0.035 -0.035 -0.07 -0.035 c 0.07,-0.67 0.176,-1.304 0.316,-1.939 -11.21,-4.616 -24.181,-8.813 -38.633,-12.408 -10.294,16.532 -22.77,34.017 -37.187,51.852 14.382,17.801 26.893,35.285 37.187,51.816 6.734,-1.691 13.15,-3.49 19.211,-5.393 39.093,-12.373 63.272,-28.834 63.272,-46.424 0,-4.053 -1.34,-8.037 -3.843,-11.914 -2.168,-3.376 -5.232,-6.723 -9.074,-9.931 z M 286.843,463.545 c 1.727,1.762 4.159,2.854 6.837,2.854 2.681,0 5.113,-1.093 6.875,-2.819 1.727,-1.762 2.818,-4.23 2.818,-6.873 0,-2.715 -1.057,-5.147 -2.818,-6.874 -0.846,-0.846 -1.832,-1.551 -2.962,-2.009 v -0.035 l -0.211,-0.07 h -0.035 l -0.315,-0.143 v 0 c -0.53,-0.175 -1.06,-0.317 -1.625,-0.423 v 0 l -0.07,-0.035 h -0.105 -0.07 v 0 l -0.069,-0.034 h -0.035 -0.035 -0.07 -0.035 -0.035 l -0.07,-0.035 v 0 h -0.035 -0.07 -0.035 l -0.179,-0.035 h -0.07 v 0 h -0.07 -0.035 -0.035 -0.069 -0.035 v 0 h -0.07 -0.035 -0.035 -0.07 -0.035 l -0.035,-0.035 h -0.07 v 0 h -0.073 -0.07 c -2.678,0 -5.11,1.128 -6.837,2.854 -1.762,1.727 -2.856,4.159 -2.856,6.874 v 0.069 0.035 0.035 0.107 0 0.07 0.035 0.035 0.104 0 0.07 l 0.035,0.035 v 0.035 0.072 0.035 0.07 0.035 0.035 0.069 0.035 l 0.035,0.072 v 0.035 0.035 0.07 0.035 0.035 l 0.035,0.069 v 0.035 0.07 0 0.072 l 0.035,0.07 v 0 0.105 0 l 0.038,0.07 v 0.069 0 0.072 l 0.035,0.035 v 0.07 0.035 0.035 l 0.035,0.07 v 0.035 0.035 l 0.035,0.071 v 0 0.07 l 0.035,0.035 v 0.07 l 0.035,0.07 v 0 0.07 0.035 l 0.035,0.036 v 0.07 0 l 0.035,0.07 v 0.035 l 0.035,0.141 v 0 l 0.035,0.071 v 0.035 l 0.175,0.458 v 0 l 0.035,0.07 v 0.035 c 0.211,0.458 0.425,0.916 0.706,1.339 v 0 c 0.384,0.684 0.875,1.281 1.44,1.847 z m -6.45,6.345 c -0.495,-0.529 -0.986,-1.058 -1.411,-1.621 h -0.035 l -0.035,-0.072 -0.034,-0.035 -0.105,-0.14 -0.035,-0.035 -0.035,-0.07 v 0 l -0.035,-0.07 -0.07,-0.072 -0.035,-0.035 -0.038,-0.069 -0.035,-0.07 -0.07,-0.07 v 0 l -0.035,-0.035 -0.035,-0.07 -0.07,-0.072 -0.035,-0.07 -0.035,-0.069 -0.035,-0.035 v 0 l -0.035,-0.07 -0.07,-0.07 -0.035,-0.072 v 0 l -0.035,-0.07 -0.034,-0.035 -0.035,-0.07 v 0 l -0.035,-0.069 -0.07,-0.07 -0.035,-0.035 v -0.037 l -0.035,-0.07 -0.039,-0.035 -0.035,-0.07 v 0 l -0.034,-0.069 -0.035,-0.07 -0.035,-0.035 -0.035,-0.037 -0.035,-0.07 -0.035,-0.035 -0.035,-0.07 v 0 l -0.07,-0.14 -0.035,-0.035 -0.035,-0.107 -0.07,-0.105 v 0 l -0.07,-0.141 -0.035,-0.069 -0.034,-0.072 -0.07,-0.105 v -0.035 l -0.07,-0.105 -0.039,-0.07 -0.035,-0.071 -0.07,-0.141 v 0 l -0.035,-0.141 -0.034,-0.07 -0.035,-0.071 -0.07,-0.105 v -0.035 l -0.07,-0.105 -0.035,-0.106 v -0.035 l -0.07,-0.141 v -0.035 l -0.07,-0.105 -0.035,-0.07 -0.105,-0.353 -0.069,-0.107 v -0.034 l -0.035,-0.141 -0.039,-0.035 -0.035,-0.105 -0.105,-0.282 v -0.035 l -0.035,-0.105 -0.035,-0.107 v -0.035 l -0.069,-0.14 v -0.035 l -0.035,-0.107 -0.035,-0.141 v 0 l -0.035,-0.14 -0.035,-0.07 v -0.072 l -0.07,-0.141 v -0.035 l -0.035,-0.14 v -0.072 l -0.035,-0.07 -0.07,-0.28 v -0.072 l -0.035,-0.07 -0.035,-0.176 -0.035,-0.142 v -0.07 l -0.035,-0.07 v -0.141 -0.035 l -0.038,-0.142 -0.035,-0.141 -0.035,-0.141 v -0.035 -0.142 l -0.035,-0.07 v -0.07 l -0.035,-0.142 v -0.035 -0.141 l -0.035,-0.105 v -0.035 -0.142 l -0.035,-0.035 v -0.141 -0.105 -0.035 l -0.035,-0.142 v -0.07 -0.105 -0.107 l -0.035,-0.035 v -0.175 -0.035 -0.122 -0.143 -0.034 l -0.034,-0.141 v -0.07 -0.072 -0.176 0 -0.14 -0.107 -0.07 -0.14 c 0,-5.183 2.116,-9.836 5.499,-13.254 3.348,-3.384 8.037,-5.5 13.217,-5.5 h 0.07 0.035 0.038 0.07 0.035 0.035 l 0.035,0.035 h 0.035 0.07 0.035 0.035 0.035 0.034 0.07 0.035 0.07 v 0 h 0.035 0.07 0.035 0.073 v 0 h 0.035 0.07 0.035 0.035 l 0.105,0.035 h 0.07 0.035 0.07 0.034 v 0 h 0.07 0.035 l 0.07,0.037 h 0.035 0.035 0.035 0.039 0.034 0.07 0.035 v 0 l 0.07,0.035 h 0.035 0.07 0.035 0.035 0.035 0.035 l 0.14,0.035 v 0 h 0.105 0.074 l 0.035,0.035 h 0.035 0.035 l 0.631,0.105 c 4.019,-10.294 7.687,-21.961 10.895,-34.755 -16.569,-10.294 -34.05,-22.771 -51.854,-37.188 -17.835,14.382 -35.316,26.895 -51.849,37.188 1.691,6.731 3.488,13.146 5.429,19.209 12.336,39.093 28.799,63.273 46.42,63.273 4.408,0 8.813,-1.622 13.08,-4.619 3.87,-2.747 7.64,-6.589 11.307,-11.488 z M 54.518,296.324 c -1.306,2.326 -2.046,4.969 -2.046,7.824 0,4.479 1.8,8.496 4.724,11.422 2.892,2.891 6.945,4.688 11.385,4.688 4.478,0 8.497,-1.798 11.388,-4.688 1.727,-1.727 3.064,-3.808 3.875,-6.168 v -0.037 -0.035 l 0.035,-0.035 0.074,-0.245 0.035,-0.072 v 0 -0.035 l 0.035,-0.14 0.035,-0.035 0.035,-0.105 v -0.035 -0.035 -0.037 l 0.035,-0.035 v -0.035 l 0.035,-0.105 v 0 l 0.035,-0.176 v 0 -0.036 l 0.105,-0.458 0.035,-0.035 v -0.035 -0.035 l 0.035,-0.176 v 0 -0.035 l 0.035,-0.071 v -0.035 -0.035 -0.035 l 0.035,-0.035 v -0.035 -0.035 -0.104 0 l 0.035,-0.072 v -0.07 -0.035 0 l 0.035,-0.035 v -0.07 -0.035 -0.035 -0.035 -0.035 l 0.035,-0.071 v -0.07 -0.035 0 -0.035 -0.07 l 0.035,-0.035 v -0.035 0 -0.071 0 l 0.035,-0.176 v -0.035 -0.07 -0.035 -0.035 -0.035 0 -0.037 -0.035 l 0.035,-0.07 v 0 -0.034 -0.035 -0.07 -0.035 -0.035 -0.035 -0.036 -0.035 -0.07 l 0.035,-0.035 v -0.035 -0.07 -0.035 -0.07 0 -0.037 -0.035 -0.07 -0.035 -0.035 -0.035 -0.034 -0.035 -0.07 -0.035 0 -0.071 -0.035 -0.035 -0.07 0 -0.035 -0.07 -0.035 -0.072 c 0,-4.441 -1.797,-8.459 -4.685,-11.385 -2.927,-2.891 -6.945,-4.724 -11.423,-4.724 H 68.44 68.37 68.3 l -0.105,0.036 h -0.035 -0.105 -0.07 -0.07 -0.145 v 0 h -0.14 -0.07 -0.07 l -0.14,0.035 v 0 h -0.141 -0.07 -0.07 l -0.109,0.035 H 66.925 66.82 66.75 l -0.07,0.035 h -0.14 v 0 l -0.141,0.035 h -0.07 -0.07 l -0.109,0.035 H 66.115 66.01 l -0.07,0.035 h -0.07 l -0.141,0.035 v 0 h -0.14 l -0.035,0.035 h -0.07 l -0.144,0.035 v 0 l -0.14,0.035 H 65.165 65.06 l -0.105,0.035 v 0 l -0.141,0.037 -0.035,0.035 h -0.105 l -0.109,0.035 v 0 l -0.14,0.035 H 64.39 l -0.105,0.035 -0.105,0.035 v 0 l -0.14,0.035 H 64 l -0.07,0.034 -0.144,0.035 v 0 l -0.141,0.035 -0.035,0.035 h -0.07 l -0.105,0.037 -0.035,0.035 -0.105,0.034 h -0.07 l -0.07,0.035 -0.105,0.035 v 0 l -0.144,0.07 h -0.035 l -0.07,0.035 -0.105,0.035 H 62.66 l -0.105,0.07 -0.246,0.072 v 0 l -0.25,0.105 -0.105,0.07 v 0 l -0.141,0.07 h -0.035 l -0.07,0.035 -0.105,0.035 v 0.034 l -0.141,0.037 -0.035,0.035 -0.074,0.035 -0.211,0.104 -0.07,0.035 -0.07,0.035 -0.105,0.07 v 0 l -0.105,0.072 h -0.07 l -0.144,0.105 v 0 l -0.14,0.07 -0.035,0.035 -0.07,0.035 -0.456,0.282 -0.109,0.07 h -0.035 l -0.07,0.069 -0.562,0.389 -0.105,0.07 -0.039,0.035 -0.07,0.071 -0.105,0.035 v 0.035 l -0.105,0.07 -0.035,0.035 -0.07,0.07 -0.105,0.069 -0.105,0.107 h -0.035 l -0.07,0.07 -0.109,0.07 -0.105,0.105 v 0 l -0.105,0.107 h -0.035 l -0.07,0.07 -0.07,0.069 -0.035,0.035 -0.105,0.07 v 0.035 l -0.07,0.07 -0.07,0.035 -0.035,0.036 -0.109,0.105 v 0 l -0.105,0.105 -0.035,0.035 -0.035,0.035 -0.105,0.107 -0.105,0.105 -0.035,0.035 -0.035,0.069 -0.07,0.07 h -0.035 l -0.07,0.105 -0.035,0.036 -0.07,0.07 -0.074,0.07 v 0.035 l -0.105,0.105 v 0 l -0.07,0.107 -0.07,0.035 -0.035,0.035 -0.07,0.105 v 0 l -0.105,0.105 -0.035,0.069 -0.035,0.035 -0.07,0.106 H 55.9 l -0.07,0.105 -0.035,0.035 -0.039,0.07 -0.07,0.107 h -0.035 l -0.07,0.105 v 0.035 l -0.07,0.105 -0.035,0.07 -0.035,0.035 -0.07,0.106 h -0.035 l -0.07,0.105 -0.035,0.069 -0.035,0.035 -0.07,0.105 -0.07,0.107 -0.035,0.07 -0.035,0.07 -0.074,0.105 v 0 l -0.07,0.106 -0.035,0.035 -0.035,0.07 -0.141,0.245 v 0.037 l -0.07,0.07 z m -5.04,-8.46 c 0.457,-0.493 0.881,-0.985 1.337,-1.446 2.327,-2.324 5.078,-4.193 8.142,-5.462 l 0.144,-0.07 h 0.07 l 0.386,-0.142 0.14,-0.07 0.035,-0.035 0.53,-0.176 0.07,-0.037 0.39,-0.105 0.14,-0.07 h 0.035 l 0.211,-0.069 h 0.035 l 0.141,-0.07 0.425,-0.106 h 0.035 l 0.14,-0.07 0.14,-0.035 h 0.07 l 0.214,-0.07 h 0.035 l 0.14,-0.035 0.141,-0.035 0.07,-0.035 0.211,-0.035 h 0.035 l 0.179,-0.035 0.105,-0.037 0.07,-0.035 0.211,-0.035 h 0.035 l 0.176,-0.035 0.144,-0.035 h 0.07 l 0.211,-0.035 h 0.035 l 0.176,-0.035 0.105,-0.035 h 0.105 l 0.214,-0.035 v 0 l 0.176,-0.034 0.14,-0.035 h 0.07 l 0.21,-0.035 h 0.035 l 0.179,-0.037 h 0.14 0.07 l 0.21,-0.035 h 0.035 0.179 l 0.14,-0.035 h 0.07 0.21 l 0.035,-0.034 h 0.175 0.141 0.109 l 0.21,-0.035 v 0 h 0.21 0.105 0.105 0.214 v 0 h 0.21 l 0.105,-0.035 h 0.105 0.211 c 6.945,0 13.22,2.819 17.769,7.365 4.58,4.584 7.366,10.857 7.366,17.766 v 0.107 0.07 0.07 0.07 0.035 0.034 0.072 0.07 0.069 0.07 0.035 0.07 0.072 0.07 0.07 0 0.07 0.07 0.07 l -0.035,0.177 v 0.07 0.069 0.07 0.037 0.035 0.07 0.07 l -0.035,0.105 v 0.035 0.035 0.072 l -0.07,0.811 v 0.035 l -0.109,0.633 v 0 0.07 0.072 l -0.035,0.07 -0.175,1.091 c 7.156,2.397 14.841,4.583 22.983,6.663 10.29,-16.566 22.805,-34.051 37.187,-51.852 -14.382,-17.835 -26.897,-35.319 -37.187,-51.852 -6.734,1.692 -13.15,3.49 -19.211,5.43 -39.057,12.336 -63.238,28.797 -63.238,46.422 0,4.406 1.551,8.742 4.513,13.006 2.683,3.775 6.456,7.477 11.18,11.071 z m 223.299,-40.889 c -4.3,-4.264 -10.22,-6.908 -16.779,-6.908 -6.556,0 -12.476,2.645 -16.775,6.943 -4.302,4.302 -6.945,10.224 -6.945,16.779 0,6.557 2.643,12.479 6.911,16.744 4.299,4.299 10.254,6.979 16.81,6.979 6.524,0 12.479,-2.68 16.779,-6.979 4.268,-4.266 6.945,-10.223 6.945,-16.744 0,-6.556 -2.678,-12.513 -6.946,-16.814 z m -16.779,-15.931 c 9.026,0 17.203,3.665 23.124,9.588 5.924,5.921 9.623,14.1 9.623,23.157 0,9.025 -3.699,17.237 -9.588,23.159 -5.921,5.921 -14.133,9.589 -23.159,9.589 -9.022,0 -17.2,-3.668 -23.155,-9.589 -5.924,-5.957 -9.588,-14.134 -9.588,-23.159 0,-9.058 3.664,-17.236 9.588,-23.157 5.92,-5.923 14.097,-9.588 23.155,-9.588 z m 0,-43.499 c 5.818,0 11.599,0.037 17.309,0.178 -5.78,-5.146 -11.56,-10.081 -17.309,-14.84 -5.745,4.759 -11.525,9.693 -17.305,14.84 5.71,-0.106 11.455,-0.178 17.305,-0.178 z"
           style="clip-rule:evenodd;fill-rule:evenodd;stroke-width:1.92897;stroke:none;fill:#e8e7e5;fill-opacity:1"
           id="path1"
           inkscape:label="path1" />
      </g>
    </g>
  </g>
</svg>
