<?xml version="1.0" encoding="UTF-8" standalone="no"?>
<!-- Created with Inkscape (http://www.inkscape.org/) -->

<svg
   width="256"
   height="256"
   viewBox="0 0 256 256"
   version="1.1"
   id="svg1"
   inkscape:version="1.3.2 (091e20e, 2023-11-25)"
   sodipodi:docname="combat.svg"
   inkscape:export-filename="docs/images//combat.png"
   inkscape:export-xdpi="96"
   inkscape:export-ydpi="96"
   xmlns:inkscape="http://www.inkscape.org/namespaces/inkscape"
   xmlns:sodipodi="http://sodipodi.sourceforge.net/DTD/sodipodi-0.dtd"
   xmlns="http://www.w3.org/2000/svg"
   xmlns:svg="http://www.w3.org/2000/svg">
  <sodipodi:namedview
     id="namedview1"
     pagecolor="#1c1c1c"
     bordercolor="#eb1ae1"
     borderopacity="1"
     inkscape:showpageshadow="false"
     inkscape:pageopacity="0.0"
     inkscape:pagecheckerboard="0"
     inkscape:deskcolor="#2e2e2e"
     inkscape:document-units="px"
     showborder="true"
     borderlayer="false"
     showgrid="true"
     showguides="true"
     inkscape:lockguides="true"
     inkscape:zoom="3.6484375"
     inkscape:cx="127.31478"
     inkscape:cy="128"
     inkscape:window-width="1920"
     inkscape:window-height="1147"
     inkscape:window-x="1920"
     inkscape:window-y="25"
     inkscape:window-maximized="0"
     inkscape:current-layer="layer1"
     labelstyle="default"
     inkscape:export-bgcolor="#00000000">
    <sodipodi:guide
       position="0,256"
       orientation="0,256"
       id="guide1"
       inkscape:locked="true" />
    <sodipodi:guide
       position="256,256"
       orientation="256,0"
       id="guide2"
       inkscape:locked="true" />
    <sodipodi:guide
       position="256,0"
       orientation="0,-256"
       id="guide3"
       inkscape:locked="true" />
    <sodipodi:guide
       position="0,0"
       orientation="-256,0"
       id="guide4"
       inkscape:locked="true" />
    <inkscape:grid
       id="grid4"
       units="px"
       originx="0"
       originy="0"
       spacingx="1"
       spacingy="1"
       empcolor="#0099e5"
       empopacity="0.30196078"
       color="#0099e5"
       opacity="0.14901961"
       empspacing="5"
       dotted="false"
       gridanglex="30"
       gridanglez="30"
       visible="true" />
    <sodipodi:guide
       position="10,246"
       orientation="0,-1"
       id="guide5"
       inkscape:locked="true" />
    <sodipodi:guide
       position="10,246"
       orientation="1,0"
       id="guide6"
       inkscape:locked="true" />
    <sodipodi:guide
       position="246,10"
       orientation="0,-1"
       id="guide7"
       inkscape:locked="true" />
    <sodipodi:guide
       position="246,10"
       orientation="1,0"
       id="guide8"
       inkscape:locked="true" />
  </sodipodi:namedview>
  <defs
     id="defs1" />
  <g
     inkscape:label="Layer 1"
     inkscape:groupmode="layer"
     id="layer1"
     transform="matrix(1.0485522,0,0,1.0485522,-5.9333016,-18.017148)">
    <path
       d="m 57.034122,55.316784 0.505452,18.906457 96.785336,96.790709 17.20723,-17.20724 1.19373,-1.19914 -96.785307,-96.790699 z m 141.395058,0 -18.90645,0.505468 -49.33098,49.330988 7.97447,7.97449 49.07826,-49.072888 2.39288,2.398261 -49.07288,49.072867 8.02824,8.03364 49.33099,-49.336369 z m -130.204978,8.738058 92.967448,92.962078 -2.39826,2.39827 -92.97283,-92.972848 z m 38.646358,64.419578 -24.133144,24.13315 1.204519,1.19914 17.201855,17.20724 24.12776,-24.13316 -8.02824,-8.02826 -20.5734,20.56804 -2.398261,-2.39826 20.573401,-20.56802 z m -31.333292,10.32435 -3.280119,8.95852 11.276111,11.27073 -29.263059,29.26845 -2.495038,-2.49506 -1.688463,1.68847 16.884602,16.88458 1.688448,-1.68845 -3.134931,-3.13494 29.263044,-29.26306 9.910287,9.90491 8.95314,-3.28012 -0.81734,-2.24233 -7.52817,2.75316 -30.273964,-30.27935 2.753146,-7.52817 z m 104.388762,0 -2.24771,0.82272 2.75854,7.52279 -30.27936,30.27397 -7.52815,-2.74239 -0.81735,2.23694 8.95851,3.28012 9.90494,-9.90491 29.26841,29.26306 -3.14031,3.13494 1.68845,1.68845 16.8846,-16.8846 -1.68308,-1.68845 -2.49506,2.49506 -29.26842,-29.26845 11.27611,-11.27073 z"
       fill="currentColor"
       paint-order="markers stroke fill"
       id="path1"
       style="fill:#e8e7e5;fill-opacity:1;stroke:none;stroke-width:5.37726;stroke-opacity:1" />
    <path
       d="M 236.2956,41.158865 V 171.89101 c -0.16943,26.82512 -34.85822,48.72674 -108.56659,65.36606 C 54.020621,220.61776 19.337122,198.71613 19.167698,171.89101 V 41.158865 H 127.72901 Z"
       fill="none"
       stroke="currentColor"
       stroke-width="12.8033"
       stop-color="currentColor"
       id="path2"
       style="stroke:#e8e7e5;stroke-width:7.62957;stroke-dasharray:none;stroke-opacity:1" />
  </g>
</svg>
