<?xml version="1.0" encoding="UTF-8" standalone="no"?>
<!-- Created with Inkscape (http://www.inkscape.org/) -->

<svg
   width="256"
   height="256"
   viewBox="0 0 256 256"
   version="1.1"
   id="svg1"
   inkscape:version="1.3.2 (091e20e, 2023-11-25)"
   sodipodi:docname="fleetcarrier.svg"
   inkscape:export-filename="docs/images/fleetcarrier.png"
   inkscape:export-xdpi="96"
   inkscape:export-ydpi="96"
   xmlns:inkscape="http://www.inkscape.org/namespaces/inkscape"
   xmlns:sodipodi="http://sodipodi.sourceforge.net/DTD/sodipodi-0.dtd"
   xmlns="http://www.w3.org/2000/svg"
   xmlns:svg="http://www.w3.org/2000/svg">
  <sodipodi:namedview
     id="namedview1"
     pagecolor="#2e0000"
     bordercolor="#fd00e2"
     borderopacity="0.24705882"
     inkscape:showpageshadow="false"
     inkscape:pageopacity="0.0"
     inkscape:pagecheckerboard="0"
     inkscape:deskcolor="#3f3f3f"
     inkscape:document-units="px"
     showborder="true"
     borderlayer="false"
     showgrid="true"
     showguides="true"
     inkscape:lockguides="true"
     inkscape:zoom="3.6484375"
     inkscape:cx="126.7666"
     inkscape:cy="125.2591"
     inkscape:window-width="1920"
     inkscape:window-height="1147"
     inkscape:window-x="1920"
     inkscape:window-y="25"
     inkscape:window-maximized="0"
     inkscape:current-layer="layer1"
     inkscape:export-bgcolor="#00000000">
    <sodipodi:guide
       position="0,256"
       orientation="0,256"
       id="guide1"
       inkscape:locked="true" />
    <sodipodi:guide
       position="256,256"
       orientation="256,0"
       id="guide2"
       inkscape:locked="true" />
    <sodipodi:guide
       position="256,0"
       orientation="0,-256"
       id="guide3"
       inkscape:locked="true" />
    <sodipodi:guide
       position="0,0"
       orientation="-256,0"
       id="guide4"
       inkscape:locked="true" />
    <inkscape:grid
       id="grid4"
       units="px"
       originx="0"
       originy="0"
       spacingx="1"
       spacingy="1"
       empcolor="#0099e5"
       empopacity="0.30196078"
       color="#0099e5"
       opacity="0.14901961"
       empspacing="5"
       dotted="false"
       gridanglex="30"
       gridanglez="30"
       visible="true" />
    <sodipodi:guide
       position="10,246"
       orientation="0,-1"
       id="guide5"
       inkscape:locked="true" />
    <sodipodi:guide
       position="10,246"
       orientation="1,0"
       id="guide6"
       inkscape:locked="true" />
    <sodipodi:guide
       position="246,10"
       orientation="0,-1"
       id="guide7"
       inkscape:locked="true" />
    <sodipodi:guide
       position="246,10"
       orientation="1,0"
       id="guide8"
       inkscape:locked="true" />
  </sodipodi:namedview>
  <defs
     id="defs1" />
  <g
     inkscape:label="Layer 1"
     inkscape:groupmode="layer"
     id="layer1"
     style="display:inline">
    <g
       id="g3"
       transform="matrix(2.6011315,0,0,2.6012736,3.145572,3.0451448)"
       style="fill:none;fill-opacity:1;stroke:#e8e7e5;stroke-width:3.0755;stroke-dasharray:none;stroke-opacity:1"
       inkscape:label="fleetcarrier">
      <path
         style="fill:none;fill-opacity:1;stroke:#e8e7e5;stroke-width:3.0755;stroke-dasharray:none;stroke-opacity:1"
         d="m 44.626135,4.3664209 c -2.852015,0.00628 -4.306199,0.9720503 -5.561444,3.4682632 L 8.6491792,68.319754 c -1.1062219,2.199861 -0.9988131,3.897262 0.6635318,5.769889 l 11.845352,13.343756 c 2.764515,3.114218 5.432667,4.778956 9.418223,4.025935 1.15245,-0.217176 2.457687,-0.699546 3.263092,-1.494038 2.314722,-2.285256 4.320596,-4.883725 6.639683,-7.162433 0.818502,-0.803222 2.164118,-1.385995 3.314385,-1.475485 2.749074,-0.210627 5.538526,-0.24555 8.281052,0.0087 1.268131,0.118955 2.70542,0.816319 3.63742,1.701391 2.153204,2.039706 4.018296,4.382803 6.047088,6.558925 2.671589,2.862572 8.532269,2.840687 11.166542,-0.106951 l 14.0182,-15.685761 c 1.229136,-1.37535 1.555153,-2.837471 0.749747,-4.488661 -0.837054,-1.713365 -1.753967,-3.392287 -2.608291,-5.10087 L 56.523871,7.0936675 C 55.587039,5.2200757 54.394996,4.3449099 52.06031,4.3500509 Z"
         id="path10"
         sodipodi:nodetypes="ssssscccccccsscssss"
         inkscape:label="outer shape" />
      <path
         style="fill:none;fill-opacity:1;stroke:#e8e7e5;stroke-width:3.0755;stroke-dasharray:none;stroke-opacity:1"
         d="m 47.84807,34.378566 c 10.639742,-0.02 17.94445,8.328495 18.15539,17.85171 0.208212,9.504121 -8.278487,18.279954 -17.864439,18.115384 -9.946004,-0.169115 -18.169029,-7.783869 -18.067195,-18.033554 0.0991,-9.935094 7.078311,-17.644407 17.776244,-17.93354 z"
         id="path2"
         inkscape:label="circle" />
      <path
         style="display:inline;fill:#ce28e5;fill-opacity:1;stroke:#e8e7e5;stroke-width:8.14696;stroke-linecap:round;stroke-dasharray:none;stroke-opacity:1"
         d="m 107.44326,139.51178 h 41.11348"
         id="path11"
         sodipodi:nodetypes="cc"
         transform="matrix(0.37750277,0,0,0.37750277,-0.31977193,-0.31978446)"
         inkscape:label="inner line" />
    </g>
  </g>
</svg>
