<?xml version="1.0" encoding="UTF-8" standalone="no"?>
<!-- Created with Inkscape (http://www.inkscape.org/) -->

<svg
   width="256"
   height="256"
   viewBox="0 0 256 256"
   version="1.1"
   id="svg1"
   inkscape:version="1.3.2 (091e20e, 2023-11-25)"
   sodipodi:docname="system_info.svg"
   inkscape:export-filename="docs/images/system_info.png"
   inkscape:export-xdpi="96"
   inkscape:export-ydpi="96"
   xmlns:inkscape="http://www.inkscape.org/namespaces/inkscape"
   xmlns:sodipodi="http://sodipodi.sourceforge.net/DTD/sodipodi-0.dtd"
   xmlns="http://www.w3.org/2000/svg"
   xmlns:svg="http://www.w3.org/2000/svg">
  <sodipodi:namedview
     id="namedview1"
     pagecolor="#030000"
     bordercolor="#fd00e2"
     borderopacity="0.24705882"
     inkscape:showpageshadow="false"
     inkscape:pageopacity="0.0"
     inkscape:pagecheckerboard="0"
     inkscape:deskcolor="#3f3f3f"
     inkscape:document-units="px"
     showborder="true"
     borderlayer="false"
     showgrid="true"
     showguides="true"
     inkscape:lockguides="true"
     inkscape:zoom="3.6484375"
     inkscape:cx="127.31478"
     inkscape:cy="128.54818"
     inkscape:window-width="1920"
     inkscape:window-height="1147"
     inkscape:window-x="1920"
     inkscape:window-y="25"
     inkscape:window-maximized="0"
     inkscape:current-layer="layer1"
     inkscape:export-bgcolor="#00000000">
    <sodipodi:guide
       position="0,256"
       orientation="0,256"
       id="guide1"
       inkscape:locked="true" />
    <sodipodi:guide
       position="256,256"
       orientation="256,0"
       id="guide2"
       inkscape:locked="true" />
    <sodipodi:guide
       position="256,0"
       orientation="0,-256"
       id="guide3"
       inkscape:locked="true" />
    <sodipodi:guide
       position="0,0"
       orientation="-256,0"
       id="guide4"
       inkscape:locked="true" />
    <inkscape:grid
       id="grid4"
       units="px"
       originx="0"
       originy="0"
       spacingx="1"
       spacingy="1"
       empcolor="#0099e5"
       empopacity="0.30196078"
       color="#0099e5"
       opacity="0.14901961"
       empspacing="5"
       dotted="false"
       gridanglex="30"
       gridanglez="30"
       visible="true" />
    <sodipodi:guide
       position="10,246"
       orientation="0,-1"
       id="guide5"
       inkscape:locked="true" />
    <sodipodi:guide
       position="10,246"
       orientation="1,0"
       id="guide6"
       inkscape:locked="true" />
    <sodipodi:guide
       position="246,10"
       orientation="0,-1"
       id="guide7"
       inkscape:locked="true" />
    <sodipodi:guide
       position="246,10"
       orientation="1,0"
       id="guide8"
       inkscape:locked="true" />
  </sodipodi:namedview>
  <defs
     id="defs1" />
  <g
     inkscape:label="Layer 1"
     inkscape:groupmode="layer"
     id="layer1">
    <path
       d="m 122.24949,89.631242 a 29.084653,29.084653 0 0 0 -24.986641,32.676118 29.084653,29.084653 0 0 0 5.870901,14.01295 c 17.45495,-2.11336 34.6234,-5.90412 51.22719,-11.01937 a 29.084653,29.084653 0 0 0 0.56052,-10.68305 29.084653,29.084653 0 0 0 -32.67612,-24.986648 z m 28.41618,1.191619 c -1.5736,0.2076 -3.17211,0.435959 -4.76232,0.664318 a 33.469149,33.469149 0 0 1 4.4011,3.86965 l 0.94665,-0.132864 c 20.41947,-2.67803 38.94562,-3.529187 53.85125,-2.65727 10.83668,0.631102 19.75514,2.188096 25.97066,4.500751 6.21552,2.312656 9.39594,5.239804 10.00628,8.279054 0.60619,3.04341 -1.19992,6.97534 -6.04528,11.50515 -0.91344,0.85531 -1.95974,1.72723 -3.07247,2.6033 a 11.085799,11.085799 0 0 0 -9.00981,-2.86902 11.085799,11.085799 0 0 0 -9.52881,12.4518 11.085799,11.085799 0 0 0 0.3114,1.50302 c -0.31555,0.15362 -0.61449,0.3114 -0.93419,0.46502 -19.51433,9.51635 -47.51947,18.63411 -79.19081,24.97834 -31.67549,6.34423 -61.034173,8.71502 -82.707533,7.44866 -10.83668,-0.6311 -19.755144,-2.1881 -25.974817,-4.50075 -6.215521,-2.31266 -9.395941,-5.24811 -10.006283,-8.28736 -0.60619,-3.04341 1.204076,-6.96288 6.04529,-11.4927 4.845366,-4.52566 12.480866,-9.40424 22.23803,-14.15826 13.622662,-6.64318 31.389005,-13.09121 51.642387,-18.53446 a 33.469149,33.469149 0 0 1 2.578382,-5.27303 c -22.013823,5.69653 -41.353768,12.60543 -56.163898,19.82573 -10.006283,4.87858 -17.94903,9.86927 -23.321698,14.89317 -5.37682,5.0239 -8.4285289,10.32184 -7.369773,15.61146 1.058756,5.28548 5.916578,9.00151 12.808873,11.56743 6.892295,2.56593 16.151221,4.12708 27.261932,4.77479 22.225574,1.29957 51.858288,-1.12519 83.836878,-7.5317 31.97858,-6.40652 60.25775,-15.57825 80.27032,-25.33542 0.34046,-0.16607 0.66432,-0.33631 0.99647,-0.50239 a 11.085799,11.085799 0 0 0 10.13085,4.06895 11.085799,11.085799 0 0 0 9.5288,-12.4518 11.085799,11.085799 0 0 0 -0.86361,-3.03926 c 1.26635,-0.99647 2.45797,-1.9888 3.52919,-2.98527 5.36851,-5.0239 8.42022,-10.32184 7.36146,-15.60731 -1.05875,-5.285479 -5.91657,-9.001506 -12.80887,-11.567432 -6.89229,-2.565927 -16.15122,-4.118769 -27.26193,-4.766479 -15.2793,-0.892677 -34.05873,-0.02491 -54.6941,2.682182 z m 0.24912,5.189981 a 33.469149,33.469149 0 0 1 3.2261,4.185198 c 7.18293,-0.622795 13.8178,-0.888522 19.53093,-0.734898 6.83832,0.186839 12.45596,0.946648 16.27578,2.142428 1.90576,0.59788 3.3465,1.32033 4.25994,2.01371 0.91344,0.69753 1.26635,1.28711 1.38261,1.85593 0.11626,0.57298 0.0291,1.25806 -0.53561,2.25868 -0.56051,1.00063 -1.59851,2.22547 -3.11398,3.52919 -3.03095,2.61575 -7.88878,5.5346 -14.09184,8.42023 -12.41444,5.7671 -30.25551,11.46363 -50.39679,15.62807 -19.76345,4.08555 -38.048788,5.92073 -51.658994,5.63424 a 7.3905329,7.3905329 0 0 0 -8.142043,-5.52214 7.3905329,7.3905329 0 0 0 -5.717283,4.19351 33.361198,33.361198 0 0 1 -3.217788,-0.81795 c -1.909913,-0.59788 -3.358955,-1.30372 -4.272392,-2.00125 -0.913437,-0.69754 -1.262203,-1.29542 -1.378459,-1.8684 -0.120408,-0.56882 -0.03322,-1.24559 0.527302,-2.24622 0.56467,-1.00478 1.61097,-2.23792 3.122293,-3.54164 3.030948,-2.61575 7.888771,-5.5346 14.095988,-8.41607 6.227977,-2.89394 13.826109,-5.77126 22.38335,-8.44099 a 33.469149,33.469149 0 0 1 1.361851,-5.03636 c -9.786228,2.93961 -18.509548,6.16155 -25.609442,9.45822 -6.435577,2.98943 -11.571582,6.02038 -15.121529,9.07624 -1.772897,1.53208 -3.163812,3.07247 -4.089705,4.72081 -0.930044,1.65249 -1.395067,3.51258 -1.017236,5.327 0.373679,1.81856 1.536234,3.33404 3.043405,4.48414 1.50717,1.1501 3.396323,2.01371 5.634243,2.7154 1.208228,0.37783 2.532711,0.70583 3.948538,0.99647 a 7.3905329,7.3905329 0 0 0 8.262449,6.04945 7.3905329,7.3905329 0 0 0 5.924883,-4.69175 c 14.112596,0.31555 32.705179,-1.5653 52.817399,-5.72143 20.41946,-4.22257 38.49305,-9.97307 51.3642,-15.95608 6.43558,-2.98943 11.57158,-6.02038 15.12153,-9.08454 1.7729,-1.52793 3.15551,-3.07247 4.08555,-4.72496 0.93005,-1.65249 1.39922,-3.50428 1.02139,-5.32285 -0.37368,-1.81441 -1.53623,-3.33404 -3.0434,-4.48414 -1.51133,-1.150099 -3.39633,-2.013711 -5.63425,-2.715397 -4.46753,-1.399219 -10.37996,-2.142424 -17.4757,-2.337567 -6.6847,-0.182688 -14.424,0.141167 -22.86913,0.975716 z m -3.30913,42.026388 a 311.76008,311.76008 0 0 1 -32.9543,7.16218 29.084653,29.084653 0 0 0 15.2793,2.0926 29.084653,29.084653 0 0 0 17.675,-9.25893 z"
       color="currentColor"
       overflow="visible"
       fill="currentColor"
       paint-order="markers fill stroke"
       stop-color="currentColor"
       id="path1"
       style="stroke-width:4.152;fill:#e8e7e5;fill-opacity:1;stroke-dasharray:none" />
  </g>
</svg>
