<?xml version="1.0" encoding="UTF-8" standalone="no"?>
<!-- Created with Inkscape (http://www.inkscape.org/) -->

<svg
   width="256"
   height="256"
   viewBox="0 0 256 256"
   version="1.1"
   id="svg1"
   inkscape:version="1.3.2 (091e20e, 2023-11-25)"
   sodipodi:docname="titan.svg"
   inkscape:export-filename="docs/images/titan.png"
   inkscape:export-xdpi="96"
   inkscape:export-ydpi="96"
   xmlns:inkscape="http://www.inkscape.org/namespaces/inkscape"
   xmlns:sodipodi="http://sodipodi.sourceforge.net/DTD/sodipodi-0.dtd"
   xmlns="http://www.w3.org/2000/svg"
   xmlns:svg="http://www.w3.org/2000/svg">
  <sodipodi:namedview
     id="namedview1"
     pagecolor="#3f2222"
     bordercolor="#fd00e2"
     borderopacity="0.24705882"
     inkscape:showpageshadow="false"
     inkscape:pageopacity="0.0"
     inkscape:pagecheckerboard="0"
     inkscape:deskcolor="#3f3f3f"
     inkscape:document-units="px"
     showborder="true"
     borderlayer="false"
     showgrid="true"
     showguides="true"
     inkscape:lockguides="true"
     inkscape:zoom="3.6484375"
     inkscape:cx="128.13704"
     inkscape:cy="128"
     inkscape:window-width="1920"
     inkscape:window-height="1147"
     inkscape:window-x="1920"
     inkscape:window-y="25"
     inkscape:window-maximized="0"
     inkscape:current-layer="layer1">
    <sodipodi:guide
       position="0,256"
       orientation="0,256"
       id="guide1"
       inkscape:locked="true" />
    <sodipodi:guide
       position="256,256"
       orientation="256,0"
       id="guide2"
       inkscape:locked="true" />
    <sodipodi:guide
       position="256,0"
       orientation="0,-256"
       id="guide3"
       inkscape:locked="true" />
    <sodipodi:guide
       position="0,0"
       orientation="-256,0"
       id="guide4"
       inkscape:locked="true" />
    <inkscape:grid
       id="grid4"
       units="px"
       originx="0"
       originy="0"
       spacingx="1"
       spacingy="1"
       empcolor="#0099e5"
       empopacity="0.30196078"
       color="#0099e5"
       opacity="0.14901961"
       empspacing="5"
       dotted="false"
       gridanglex="30"
       gridanglez="30"
       visible="true" />
    <sodipodi:guide
       position="10,246"
       orientation="0,-1"
       id="guide5"
       inkscape:locked="true" />
    <sodipodi:guide
       position="10,246"
       orientation="1,0"
       id="guide6"
       inkscape:locked="true" />
    <sodipodi:guide
       position="246,10"
       orientation="0,-1"
       id="guide7"
       inkscape:locked="true" />
    <sodipodi:guide
       position="246,10"
       orientation="1,0"
       id="guide8"
       inkscape:locked="true" />
  </sodipodi:namedview>
  <defs
     id="defs1" />
  <g
     inkscape:label="Layer 1"
     inkscape:groupmode="layer"
     id="layer1">
    <path
       _ngcontent-ng-cli-universal-c4263036870=""
       fill="currentColor"
       d="m 81.408623,54.246981 c 0.04582,-5.956495 0.73311,-11.958804 2.153493,-17.869463 l 1.557859,-6.506328 c 0.778923,-3.161519 -0.183278,-6.506316 -2.52006,-8.843087 -3.665527,-3.665538 -9.622022,-3.665538 -13.287549,0 l -3.711352,3.711341 C 42.783082,47.465749 35.131287,79.630787 42.553979,108.72594 c 8.843099,8.88892 19.656424,15.57851 31.523579,19.42733 -3.207345,-9.11802 -4.948469,-18.92332 -4.948469,-29.095161 0,-16.357441 4.490275,-31.706856 12.279534,-44.811128 z M 53.642221,174.75133 c -5.956495,-0.0458 -11.958804,-0.7331 -17.869474,-2.15349 l -6.506317,-1.55786 c -3.161519,-0.77892 -6.506316,0.18328 -8.843098,2.52006 -3.665527,3.66553 -3.665527,9.62202 0,13.28755 l 3.711352,3.71135 c 22.772118,22.77212 54.937157,30.46974 84.032316,23.04704 8.88892,-8.8431 15.57852,-19.65642 19.42732,-31.52358 -9.11801,3.20734 -18.9233,4.94847 -29.095158,4.94847 -16.357429,0 -31.706844,-4.49028 -44.811127,-12.27954 z m 120.550179,27.7664 c -0.0458,5.9565 -0.73311,11.95881 -2.15351,17.86948 l -1.55784,6.50631 c -0.77893,3.16152 0.18327,6.50632 2.52004,8.8431 3.66554,3.66553 9.62203,3.66553 13.28756,0 l 3.71134,-3.71135 c 22.77212,-22.77212 30.46974,-54.93716 23.04704,-84.03231 -8.8431,-8.88892 -19.65641,-15.57852 -31.52358,-19.42732 3.20735,9.11801 4.94847,18.9233 4.94847,29.09515 0,16.35744 -4.49028,31.70686 -12.27952,44.81113 z M 201.9588,81.967558 c 5.95648,0.04583 11.95879,0.73311 17.86946,2.153504 l 6.50632,1.557848 c 3.16152,0.778935 6.50633,-0.183278 8.8431,-2.520049 3.66552,-3.665527 3.66552,-9.622022 0,-13.287549 L 231.46633,66.15996 C 208.69421,43.387842 176.52917,35.736047 147.43401,43.15875 c -8.88891,8.843088 -15.57851,19.656413 -19.42732,31.523568 9.11801,-3.207345 18.92331,-4.948469 29.09517,-4.948469 16.35743,0 31.70684,4.490275 44.81111,12.279534 z"
       id="path1"
       style="display:inline;stroke-width:0.999999;stroke:none;stroke-opacity:1;fill:#d8d7d5;fill-opacity:1" />
    <path
       _ngcontent-ng-cli-universal-c4263036870=""
       fill="currentColor"
       d="m 157.10186,11.08534 h 5.2692 c 5.17756,0 9.39292,4.21537 9.39292,9.392931 0,3.253158 -1.69531,6.277225 -4.49028,8.018349 l -5.72739,3.528075 c -16.12834,9.942752 -27.90386,25.154714 -33.58543,42.657623 9.118,-3.207345 18.9233,-4.948469 29.09515,-4.948469 48.5683,0 87.97276,39.404461 87.97276,87.972771 v 5.2692 c 0,5.17756 -4.21536,9.39292 -9.39292,9.39292 -3.25316,0 -6.27722,-1.6953 -8.01835,-4.49028 l -3.52807,-5.72739 c -9.94276,-16.12834 -25.15472,-27.90386 -42.65763,-33.58543 3.20734,9.11801 4.94846,18.9233 4.94846,29.09515 0,48.5683 -39.40446,87.97276 -87.972756,87.97276 h -5.223386 c -5.17756,0 -9.392919,-4.21536 -9.392919,-9.39292 0,-3.25316 1.695311,-6.27722 4.490275,-8.01835 l 5.727393,-3.52807 c 16.128343,-9.94276 27.903863,-25.15472 33.585433,-42.65763 -9.11801,3.20734 -18.9233,4.94847 -29.095158,4.94847 C 49.885044,187.03087 10.48058,147.6264 10.48058,99.058109 v -5.269211 c 0,-5.17756 4.215359,-9.392919 9.392931,-9.392919 3.253158,0 6.277214,1.695311 8.018349,4.490275 l 3.528075,5.727393 c 9.942752,16.128343 25.154703,27.903863 42.657623,33.585433 -3.207345,-9.118 -4.948469,-18.9233 -4.948469,-29.095157 0,-48.614119 39.404461,-88.018583 87.972771,-88.018583 z M 127.7776,143.04449 a 14.66213,14.66213 0 1 0 0,-29.32426 14.66213,14.66213 0 1 0 0,29.32426 z"
       id="path2"
       style="display:inline;stroke-width:0.999999;stroke:none;fill:#e8e7e5;fill-opacity:1"
       inkscape:label="path2" />
  </g>
</svg>
